<svg xmlns="http://www.w3.org/2000/svg" xml:space="preserve" version="1.0" viewBox="0 0 63.481 48.369"><path d="M57.761 7.457C52.531 1.136 3.062 34.07 5.872 40.26 3.927 34.983 53.564 2.617 57.761 7.456m2.643-.024c.177-.158-.028-1.828-.121-1.754.093-.074-1.114-.701-1.776-.911C46.651-1.17 31.593-.975 19.924 7 9.204 14.324 3.648 26.879 3.918 39.412c-3.35-1.562-3.378-.808.037 1.063.251 5.163 1.182 5.536 1.228.641 12.331 6.208 27.816 6.049 39.513-2.15C55.286 31.56 61.09 19.38 60.404 7.435zM42.416 36.8c-10.767 7.52-24.791 8.207-36.544 3.461l-.66-.279c.427-11.734 5.918-23.274 15.96-30.14 11.287-7.725 25.348-8.432 36.98-3.11 0 11.52-5.453 22.875-15.736 30.069z" style="fill-rule:evenodd;fill:#060"/></svg>