<svg xmlns="http://www.w3.org/2000/svg" data-name="Layer 1" viewBox="0 0 128 128"><path d="M19.763 95.038a1.25 1.25 0 0 0 1.723-.395C29 82.668 39.934 72.794 51.437 64.874a1.2 1.2 0 0 0 .244.136l23.249 7.467a1.25 1.25 0 1 0 .764-2.38l-21.673-6.961a193 193 0 0 1 27.988-15.107l8.453 2.323a1.2 1.2 0 0 0 .332.045 1.25 1.25 0 0 0 .33-2.456l-5.443-1.5c7.49-3.15 13.543-5.214 16.819-6.26-2.828 2.995-6.139 7.581-7.015 13.289-.23 1.5-.427 3.182-.635 4.967-1.166 9.991-2.762 23.663-12.943 29.995-9.213 5.728-26.874.764-35.652-10.023a1.25 1.25 0 0 0-1.939 1.578 37.9 37.9 0 0 0 27.92 13.364 20.76 20.76 0 0 0 10.992-2.8c11.2-6.964 12.88-21.332 14.1-31.823.206-1.762.4-3.426.623-4.877 1.411-9.151 10.249-15.427 10.337-15.489a1.251 1.251 0 0 0-.441-2.245c-25.558-5.723-44.868-4.158-57.4 4.65-10.575 7.433-12.089 17.227-12.226 18.32a26.9 26.9 0 0 0 1.107 11.87 97.1 97.1 0 0 0-19.96 22.358 1.25 1.25 0 0 0 .395 1.723M40.7 59.4c.448-3.557 3.309-11.054 11.182-16.586 10.979-7.716 28.418-9.494 50.6-5.242a209 209 0 0 0-20.793 7.878 1.24 1.24 0 0 0-.59.259 213 213 0 0 0-13.02 6.281l1.357-12.07a1.25 1.25 0 0 0-2.484-.279l-1.547 13.78a162 162 0 0 0-23.994 15.82A24.5 24.5 0 0 1 40.7 59.4"/></svg>