<svg xmlns="http://www.w3.org/2000/svg" xml:space="preserve" viewBox="0 0 64 64"><path d="M62.308 31.043c-2.106-.68-3.877-1.376-5.591-2.049-2.194-.862-4.192-1.638-6.394-2.188.902-.44 1.684-.87 2.323-1.294C58.095 21.098 59.139 13.119 57 7.955a1 1 0 0 0-.525-.535c-5.132-2.227-13.127-1.32-17.686 4.13-.474.69-.968 1.563-1.481 2.61-.556-2.406-1.386-4.54-2.309-6.891-.672-1.71-1.366-3.478-2.046-5.577A1 1 0 0 0 32.01 1c-.42-.02-.817.271-.954.68-.66 1.947-1.315 3.613-1.949 5.225-.975 2.48-1.85 4.726-2.423 7.241q-.786-1.595-1.527-2.673C20.65 6.1 12.653 5.193 7.53 7.42a1 1 0 0 0-.525.535C4.866 13.121 5.91 21.101 11.437 25.57c.606.4 1.36.812 2.233 1.236-2.202.55-4.198 1.327-6.394 2.19-1.711.673-3.482 1.368-5.583 2.047a1 1 0 0 0-.013 1.899c1.945.659 3.61 1.314 5.22 1.947 2.328.917 4.444 1.74 6.763 2.313-.893.437-1.67.865-2.306 1.286-5.449 4.41-6.492 12.388-4.352 17.554a1 1 0 0 0 .524.534c1.698.738 3.708 1.133 5.806 1.133 4.237 0 8.827-1.612 11.88-5.259.47-.685.96-1.553 1.47-2.592.574 2.51 1.447 4.755 2.42 7.23.635 1.614 1.291 3.283 1.95 5.232a1 1 0 0 0 .948.68h.007a1 1 0 0 0 .944-.692c.68-2.103 1.375-3.873 2.048-5.585.923-2.35 1.753-4.486 2.308-6.892q.79 1.606 1.538 2.695c3.007 3.59 7.572 5.186 11.8 5.186 2.104 0 4.125-.395 5.828-1.136a1 1 0 0 0 .525-.534c2.139-5.164 1.095-13.142-4.433-17.611-.601-.398-1.35-.809-2.217-1.231 2.312-.573 4.423-1.394 6.746-2.309 1.611-.634 3.277-1.29 5.225-1.95a1 1 0 0 0-.013-1.898M40.38 12.758C44.12 8.294 50.919 7.41 55.3 9.1c1.613 4.408.616 11.189-3.834 14.8-1.69 1.115-4.59 2.357-8.81 3.783a11.5 11.5 0 0 0-1.845-3.065l8.904-8.887a1 1 0 1 0-1.412-1.416l-8.905 8.888a11.5 11.5 0 0 0-2.897-1.789c1.497-4.188 2.786-7.058 3.879-8.656M32.002 41.5c-5.24 0-9.503-4.263-9.503-9.503s4.263-9.502 9.503-9.502 9.5 4.263 9.5 9.502-4.26 9.503-9.5 9.503M30.968 7.637c.334-.85.674-1.716 1.018-2.63.388 1.05.773 2.03 1.15 2.993 1.247 3.172 2.323 5.927 2.71 9.485a93 93 0 0 0-1.25 3.317c-.835-.194-1.7-.306-2.594-.306-.895 0-1.762.113-2.598.307q-.648-1.816-1.256-3.328c.387-3.64 1.461-6.386 2.82-9.838M8.704 9.1c4.378-1.689 11.175-.808 14.861 3.582 1.142 1.662 2.435 4.536 3.935 8.734a11.5 11.5 0 0 0-2.895 1.787l-8.907-8.888a1 1 0 0 0-1.412 1.416l8.905 8.886a11.5 11.5 0 0 0-1.844 3.066c-4.216-1.425-7.11-2.663-8.733-3.725C8.09 20.292 7.09 13.509 8.704 9.1M7.631 33.028c-.849-.334-1.712-.673-2.625-1.017 1.053-.388 2.036-.775 3-1.154 3.02-1.186 5.64-2.21 8.926-2.641 1.135.443 2.416.902 3.824 1.378-.166.776-.257 1.579-.257 2.404s.092 1.63.258 2.406c-1.41.476-2.692.936-3.83 1.381-3.383-.437-6.13-1.512-9.296-2.757m15.992 18.214c-3.744 4.467-10.54 5.348-14.919 3.655-1.616-4.41-.619-11.188 3.832-14.797 1.693-1.117 4.593-2.36 8.81-3.786a11.5 11.5 0 0 0 1.845 3.066l-8.905 8.886a1 1 0 0 0 1.412 1.416l8.908-8.887c.866.73 1.838 1.336 2.894 1.786-1.499 4.195-2.787 7.066-3.877 8.66m9.517 4.75c-.38.964-.766 1.947-1.154 3-.344-.917-.685-1.784-1.02-2.636-1.358-3.45-2.43-6.195-2.818-9.832a93 93 0 0 0 1.256-3.33c.836.194 1.703.307 2.598.307s1.759-.112 2.595-.306q.645 1.808 1.25 3.315c-.388 3.557-1.462 6.31-2.707 9.482m22.16-1.095c-4.38 1.691-11.177.813-14.861-3.578-1.148-1.675-2.442-4.55-3.938-8.736a11.5 11.5 0 0 0 2.897-1.79l8.905 8.89a.997.997 0 0 0 1.414-.001 1 1 0 0 0-.002-1.416L40.81 39.38a11.5 11.5 0 0 0 1.844-3.065c4.222 1.427 7.116 2.667 8.733 3.729 4.527 3.666 5.526 10.446 3.913 14.854m1.063-21.867c-3.162 1.244-5.906 2.318-9.284 2.755a89 89 0 0 0-3.833-1.382 11.4 11.4 0 0 0 0-4.809 88 88 0 0 0 3.822-1.378c3.284.433 5.902 1.456 8.917 2.64.967.38 1.953.766 3.007 1.155-.914.344-1.78.685-2.629 1.02"/><path d="M32.002 25.266a6.74 6.74 0 0 0-6.732 6.732 6.74 6.74 0 0 0 6.732 6.733 6.74 6.74 0 0 0 6.731-6.733 6.74 6.74 0 0 0-6.731-6.732m0 11.465a4.74 4.74 0 0 1-4.732-4.733 4.74 4.74 0 0 1 4.732-4.732 4.737 4.737 0 0 1 4.731 4.732 4.737 4.737 0 0 1-4.731 4.733"/></svg>